<svg width="189" height="189" viewBox="0 0 189 189" fill="none" xmlns="http://www.w3.org/2000/svg">
<path d="M188.882 0.0200043V188.88C188.652 188.88 188.432 188.88 188.202 188.88C136.042 188.88 93.7617 146.6 93.7617 94.44C93.7617 42.28 136.042 0 188.202 0C188.432 0 188.652 0 188.882 0V0.0200043Z" fill="#FF9D00"/>
<path d="M121.4 0.0117188C108.1 37.4717 72.35 64.2817 30.33 64.2817C19.73 64.2817 9.53 62.5717 0 59.4217V0.0117188H121.4Z" fill="#3359FF"/>
<path d="M95.8 167.892C95.8 175.112 95.01 182.132 93.51 188.892H0V71.2617C52.99 71.7117 95.8 114.802 95.8 167.892Z" fill="#1DB212"/>
</svg>
