<svg height="52.773308377444366" width="350.00000000000006" style="width: 350px; height: 52.7733px; position: absolute; top: 50%; left: 50%; transform: translate(-50%, -50%) scale(1); z-index: 0; cursor: pointer; overflow: visible;"><defs id="SvgjsDefs1001"></defs><g id="SvgjsG1007" featurekey="s6yzU4-0" transform="matrix(2.2068097112480856,0,0,2.2068097112480856,-0.8827239634208995,-11.231886230086968)" fill="#111111"><path d="M10.42 8.18 c0.36 0 0.64 0.3 0.64 0.68 c0 0.36 -0.28 0.64 -0.64 0.64 l-2.68 0 l0 10.02 c0 0.38 -0.3 0.68 -0.68 0.68 c-0.36 0 -0.66 -0.3 -0.66 -0.68 l0 -10.66 c0 -0.38 0.3 -0.68 0.66 -0.68 l3.36 0 l0 0 z M1.08 6.84 c-0.38 0 -0.68 -0.3 -0.68 -0.66 c0 -0.38 0.3 -0.66 0.68 -0.66 l9.34 0 c0.36 0 0.64 0.28 0.64 0.66 c0 0.36 -0.28 0.66 -0.64 0.66 l-9.34 0 l0 0 z M1.08 9.5 c-0.38 0 -0.68 -0.28 -0.68 -0.64 c0 -0.38 0.3 -0.68 0.68 -0.68 l3.32 0 c0.38 0 0.68 0.3 0.68 0.68 l0 10.66 c0 0.38 -0.3 0.68 -0.68 0.68 c-0.36 0 -0.68 -0.3 -0.68 -0.68 l0 -10.02 l-2.64 0 l0 0 z M15.900000000000002 6.16 c0 -0.36 0.3 -0.66 0.66 -0.66 c0.38 0 0.68 0.3 0.68 0.66 l0 4.68 l2.66 0 l0 -4.68 c0 -0.36 0.3 -0.66 0.68 -0.66 c0.36 0 0.66 0.3 0.66 0.66 l0 5.36 c0 0.36 -0.3 0.66 -0.66 0.66 l-4.02 0 c-0.36 0 -0.66 -0.3 -0.66 -0.66 l0 -5.36 l0 0 z M21.240000000000002 19.54 c0 0.36 -0.3 0.66 -0.66 0.66 c-0.38 0 -0.68 -0.3 -0.68 -0.66 l0 -4.68 l-2.66 0 l0 4.68 c0 0.36 -0.3 0.66 -0.68 0.66 c-0.36 0 -0.66 -0.3 -0.66 -0.66 l0 -5.36 c0 -0.36 0.3 -0.66 0.66 -0.66 l4.02 0 c0.36 0 0.66 0.3 0.66 0.66 l0 5.36 l0 0 z M14.56 19.54 c0 0.36 -0.3 0.66 -0.66 0.66 c-0.38 0 -0.68 -0.3 -0.68 -0.66 l0 -13.38 c0 -0.36 0.3 -0.66 0.68 -0.66 c0.36 0 0.66 0.3 0.66 0.66 l0 13.38 l0 0 z M22.580000000000002 6.16 c0 -0.36 0.3 -0.66 0.66 -0.66 c0.38 0 0.68 0.3 0.68 0.66 l0 13.38 c0 0.36 -0.3 0.66 -0.68 0.66 c-0.36 0 -0.66 -0.3 -0.66 -0.66 l0 -13.38 l0 0 z M32.86 12.18 c-0.18 0 -0.44 0.02 -0.66 0 c-1.04 -0.06 -1.08 -1.32 0 -1.32 c0.62 0 1.36 0.1 1.36 -0.68 c0 -0.4 -0.32 -0.68 -0.7 -0.68 l-2.38 0 c-0.88 0 -0.88 -1.34 0 -1.34 l2.38 0 c1.22 0 2.02 1.02 2.02 2.04 c0 1.12 -0.92 1.98 -2.02 1.98 l0 0 z M34.1 19.14 c0.5 0.72 -0.58 1.5 -1.1 0.78 l-1.84 -2.66 l0 2.28 c0 0.88 -1.34 0.88 -1.34 0 l0 -4.36 c0 -0.72 0.84 -0.92 1.22 -0.42 l3.06 4.38 l0 0 z M28.48 19.54 c0 0.88 -1.34 0.88 -1.34 0 l0 -13.38 c0 -0.36 0.32 -0.66 0.68 -0.66 l5.26 0 c4.1 0 6.16 5.02 3.28 7.98 c-0.58 0.58 -1.3 1.02 -2.1 1.22 l3.1 4.44 c0.5 0.72 -0.6 1.5 -1.08 0.78 l-3.7 -5.3 c-0.4 -0.52 0 -1.1 0.5 -1.1 c2.94 0 4.38 -3.64 2.32 -5.72 c-0.6 -0.6 -1.42 -0.96 -2.32 -0.96 l-4.6 0 l0 12.7 l0 0 z M47.199999999999996 8.18 c0.38 0 0.68 0.28 0.68 0.66 c0 0.36 -0.3 0.66 -0.68 0.66 l-3.58 0 l0 1.34 l2.34 0 c0.38 0 0.68 0.3 0.68 0.68 c0 0.36 -0.3 0.66 -0.68 0.66 l-3 0 c-0.38 0 -0.68 -0.3 -0.68 -0.66 l0 -2.68 c0 -0.38 0.3 -0.66 0.68 -0.66 l4.24 0 l0 0 z M45.959999999999994 13.52 c0.38 0 0.68 0.3 0.68 0.66 c0 0.38 -0.3 0.68 -0.68 0.68 l-2.34 0 l0 1.32 l3.58 0 c0.38 0 0.68 0.3 0.68 0.68 c0 0.36 -0.3 0.66 -0.68 0.66 l-4.24 0 c-0.38 0 -0.68 -0.3 -0.68 -0.66 l0 -2.68 c0 -0.36 0.3 -0.66 0.68 -0.66 l3 0 l0 0 z M47.199999999999996 18.86 c0.38 0 0.68 0.3 0.68 0.68 c0 0.36 -0.3 0.66 -0.68 0.66 l-6.92 0 c-0.36 0 -0.66 -0.3 -0.66 -0.66 l0 -13.38 c0 -0.36 0.3 -0.66 0.66 -0.66 l6.92 0 c0.38 0 0.68 0.3 0.68 0.66 c0 0.38 -0.3 0.68 -0.68 0.68 l-6.24 0 l0 12.02 l6.24 0 l0 0 z M54.419999999999995 16.2 c-0.36 0 -0.66 -0.3 -0.66 -0.68 s0.3 -0.66 0.66 -0.66 l0.96 0 l-0.6 -1.48 c-0.12 -0.34 0.04 -0.74 0.36 -0.86 c0.36 -0.14 0.74 0.02 0.88 0.34 l0.98 2.4 c0.04 0.08 0.06 0.16 0.06 0.26 c0 0.38 -0.32 0.68 -0.7 0.68 l-1.94 0 l0 0 z M53.44 19.66 c-0.12 0.34 -0.5 0.5 -0.86 0.38 c-0.34 -0.16 -0.5 -0.54 -0.36 -0.88 l0.48 -1.22 c0.12 -0.24 0.38 -0.42 0.62 -0.42 l0 0 l4.14 0 c0.3 0 0.56 0.22 0.64 0.48 l0.48 1.16 c0.12 0.34 -0.02 0.72 -0.36 0.88 c-0.34 0.12 -0.74 -0.02 -0.88 -0.38 l-0.32 -0.78 l-3.24 0 l-0.34 0.78 l0 0 z M50.57999999999999 19.66 c-0.16 0.34 -0.54 0.5 -0.88 0.38 c-0.32 -0.16 -0.5 -0.54 -0.38 -0.88 l5.46 -13.64 c0.14 -0.36 0.54 -0.52 0.86 -0.38 c0.2 0.06 0.32 0.22 0.38 0.38 l5.44 13.64 c0.14 0.34 -0.02 0.72 -0.36 0.88 c-0.34 0.12 -0.74 -0.04 -0.88 -0.38 l-4.82 -12.14 l-4.82 12.14 l0 0 z M68.17999999999999 17.54 l-1.32 0 c-0.36 0 -0.66 -0.3 -0.66 -0.68 c0 -0.36 0.3 -0.66 0.66 -0.66 l1.32 0 c1.98 0 3.24 -1.46 3.24 -3.36 c0 -1.88 -1.26 -3.34 -3.24 -3.34 l-0.66 0 l0 4.68 c0 0.38 -0.28 0.68 -0.66 0.68 c-0.36 0 -0.66 -0.3 -0.66 -0.68 l0 -5.34 c0 -0.38 0.3 -0.68 0.66 -0.68 l1.32 0 c2.74 0 4.56 2.06 4.56 4.68 c0 2.64 -1.82 4.7 -4.56 4.7 l0 0 z M64.86 19.54 c0 0.36 -0.3 0.66 -0.68 0.66 c-0.36 0 -0.66 -0.3 -0.66 -0.66 l0 -13.38 c0 -0.36 0.3 -0.66 0.66 -0.66 l4 0 c4.34 0 7.36 3.12 7.36 7.34 c0 4.24 -3.02 7.36 -7.36 7.36 l-1.34 0 c-0.36 0 -0.66 -0.3 -0.66 -0.66 c0 -0.38 0.3 -0.68 0.66 -0.68 l1.34 0 c3.58 0 6.02 -2.52 6.02 -6.02 c0 -3.48 -2.44 -6 -6.02 -6 l-3.32 0 l0 12.7 l0 0 z M85.47999999999999 6.34 c-0.14 -0.34 0.04 -0.72 0.38 -0.86 s0.72 0.02 0.86 0.36 l2.06 5.06 l2.06 -5.06 c0.12 -0.34 0.52 -0.5 0.86 -0.36 c0.18 0.06 0.3 0.22 0.38 0.36 l2.06 5.06 l2.06 -5.06 c0.12 -0.34 0.52 -0.5 0.86 -0.36 c0.32 0.14 0.5 0.52 0.36 0.86 l-2.68 6.56 c-0.06 0.16 -0.18 0.32 -0.36 0.38 c-0.34 0.12 -0.72 -0.02 -0.88 -0.38 l-2.06 -5.04 l-2.06 5.04 c-0.06 0.16 -0.18 0.32 -0.34 0.38 c-0.34 0.12 -0.74 -0.02 -0.88 -0.38 l-2.68 -6.56 l0 0 z M99.19999999999999 5.84 c0.14 -0.34 0.54 -0.5 0.88 -0.36 c0.32 0.14 0.5 0.52 0.34 0.86 l-5.68 13.96 c-0.24 0.56 -1 0.54 -1.24 0 l-2.06 -5.06 l-2.06 5.06 c-0.22 0.56 -1 0.56 -1.22 -0.02 l-5.7 -13.94 c-0.12 -0.34 0.06 -0.72 0.38 -0.86 c0.34 -0.14 0.74 0.02 0.86 0.36 l5.08 12.46 l2.04 -5.02 c0.26 -0.58 1 -0.62 1.26 0 l2.06 5.02 l5.06 -12.46 l0 0 z M109.79999999999998 8.18 c0.38 0 0.68 0.28 0.68 0.66 c0 0.36 -0.3 0.66 -0.68 0.66 l-3.58 0 l0 1.34 l2.34 0 c0.38 0 0.68 0.3 0.68 0.68 c0 0.36 -0.3 0.66 -0.68 0.66 l-3 0 c-0.38 0 -0.68 -0.3 -0.68 -0.66 l0 -2.68 c0 -0.38 0.3 -0.66 0.68 -0.66 l4.24 0 l0 0 z M108.55999999999997 13.52 c0.38 0 0.68 0.3 0.68 0.66 c0 0.38 -0.3 0.68 -0.68 0.68 l-2.34 0 l0 1.32 l3.58 0 c0.38 0 0.68 0.3 0.68 0.68 c0 0.36 -0.3 0.66 -0.68 0.66 l-4.24 0 c-0.38 0 -0.68 -0.3 -0.68 -0.66 l0 -2.68 c0 -0.36 0.3 -0.66 0.68 -0.66 l3 0 l0 0 z M109.79999999999998 18.86 c0.38 0 0.68 0.3 0.68 0.68 c0 0.36 -0.3 0.66 -0.68 0.66 l-6.92 0 c-0.36 0 -0.66 -0.3 -0.66 -0.66 l0 -13.38 c0 -0.36 0.3 -0.66 0.66 -0.66 l6.92 0 c0.38 0 0.68 0.3 0.68 0.66 c0 0.38 -0.3 0.68 -0.68 0.68 l-6.24 0 l0 12.02 l6.24 0 l0 0 z M117.01999999999997 16.2 c-0.36 0 -0.66 -0.3 -0.66 -0.68 s0.3 -0.66 0.66 -0.66 l0.96 0 l-0.6 -1.48 c-0.12 -0.34 0.04 -0.74 0.36 -0.86 c0.36 -0.14 0.74 0.02 0.88 0.34 l0.98 2.4 c0.04 0.08 0.06 0.16 0.06 0.26 c0 0.38 -0.32 0.68 -0.7 0.68 l-1.94 0 l0 0 z M116.03999999999998 19.66 c-0.12 0.34 -0.5 0.5 -0.86 0.38 c-0.34 -0.16 -0.5 -0.54 -0.36 -0.88 l0.48 -1.22 c0.12 -0.24 0.38 -0.42 0.62 -0.42 l0 0 l4.14 0 c0.3 0 0.56 0.22 0.64 0.48 l0.48 1.16 c0.12 0.34 -0.02 0.72 -0.36 0.88 c-0.34 0.12 -0.74 -0.02 -0.88 -0.38 l-0.32 -0.78 l-3.24 0 l-0.34 0.78 l0 0 z M113.17999999999998 19.66 c-0.16 0.34 -0.54 0.5 -0.88 0.38 c-0.32 -0.16 -0.5 -0.54 -0.38 -0.88 l5.46 -13.64 c0.14 -0.36 0.54 -0.52 0.86 -0.38 c0.2 0.06 0.32 0.22 0.38 0.38 l5.44 13.64 c0.14 0.34 -0.02 0.72 -0.36 0.88 c-0.34 0.12 -0.74 -0.04 -0.88 -0.38 l-4.82 -12.14 l-4.82 12.14 l0 0 z M127.73999999999998 6.42 c-0.16 -0.36 0.02 -0.72 0.34 -0.88 c0.36 -0.12 0.74 0.04 0.88 0.38 l2.08 5.06 l2.06 -5.06 c0.12 -0.34 0.52 -0.5 0.86 -0.38 c0.34 0.16 0.5 0.52 0.38 0.88 l-2.7 6.58 c-0.22 0.54 -1 0.54 -1.24 0 l-2.66 -6.58 l0 0 z M136.11999999999998 5.92 c0.14 -0.34 0.54 -0.5 0.86 -0.38 c0.34 0.16 0.5 0.52 0.36 0.88 l-5.7 13.98 c-0.24 0.56 -1 0.56 -1.24 0 l-5.7 -13.98 c-0.12 -0.36 0.02 -0.72 0.38 -0.88 c0.34 -0.12 0.72 0.04 0.86 0.38 l5.1 12.48 l5.08 -12.48 l0 0 z M146.72 8.18 c0.38 0 0.68 0.28 0.68 0.66 c0 0.36 -0.3 0.66 -0.68 0.66 l-3.58 0 l0 1.34 l2.34 0 c0.38 0 0.68 0.3 0.68 0.68 c0 0.36 -0.3 0.66 -0.68 0.66 l-3 0 c-0.38 0 -0.68 -0.3 -0.68 -0.66 l0 -2.68 c0 -0.38 0.3 -0.66 0.68 -0.66 l4.24 0 l0 0 z M145.48 13.52 c0.38 0 0.68 0.3 0.68 0.66 c0 0.38 -0.3 0.68 -0.68 0.68 l-2.34 0 l0 1.32 l3.58 0 c0.38 0 0.68 0.3 0.68 0.68 c0 0.36 -0.3 0.66 -0.68 0.66 l-4.24 0 c-0.38 0 -0.68 -0.3 -0.68 -0.66 l0 -2.68 c0 -0.36 0.3 -0.66 0.68 -0.66 l3 0 l0 0 z M146.72 18.86 c0.38 0 0.68 0.3 0.68 0.68 c0 0.36 -0.3 0.66 -0.68 0.66 l-6.92 0 c-0.36 0 -0.66 -0.3 -0.66 -0.66 l0 -13.38 c0 -0.36 0.3 -0.66 0.66 -0.66 l6.92 0 c0.38 0 0.68 0.3 0.68 0.66 c0 0.38 -0.3 0.68 -0.68 0.68 l-6.24 0 l0 12.02 l6.24 0 l0 0 z M157.57999999999998 6.02 c0.82 0.28 0.38 1.56 -0.46 1.26 c-1.8 -0.64 -3.96 -0.98 -5.28 0.48 c-1.08 1.14 -1.36 3.24 0.08 4.48 c1.74 1.56 4.22 1.22 4.36 3.34 c0.06 1.12 -0.92 1.94 -2 2.02 c-1.3 0.08 -2.92 -0.24 -4.24 -1.2 c-0.7 -0.5 0.08 -1.58 0.78 -1.08 c1.54 1.12 4.24 1.32 4.12 0.32 c-0.08 -0.94 -2.06 -0.78 -3.92 -2.4 c-2.9 -2.54 -1.14 -7.6 2.98 -7.8 c1.2 -0.06 2.18 0.1 3.58 0.58 l0 0 z M149.78 19.24 c-0.76 -0.4 -0.14 -1.58 0.64 -1.18 c3.08 1.64 7.26 1.22 7.26 -2.48 c0 -2.74 -3.6 -3.24 -4.62 -4.06 c-1.6 -1.26 -0.76 -4.8 4.22 -2.78 c0.78 0.32 0.3 1.56 -0.52 1.22 c-3.02 -1.22 -3.54 0.02 -2.88 0.54 c0.74 0.56 5.12 1.36 5.12 5.08 c0 3.66 -3.24 5.38 -6.98 4.48 c-0.68 -0.14 -1.46 -0.4 -2.24 -0.82 l0 0 z M154.16 16.28 l0 0 l0 0 z"></path></g><g id="SvgjsG1008" featurekey="sT9YGu-0" transform="matrix(0.5223997190498164,0,0,0.5223997190498164,34.93731209349792,42.13724977874262)" fill="#111111"><path d="M1.98 5.84 l3.22 11.76 l0.04 0 l3.48 -11.76 l1.88 0 l3.46 11.76 l0.04 0 l3.28 -11.76 l1.76 0 l-4.16 14.16 l-1.82 0 l-3.5 -12 l-0.04 0 l-3.52 12 l-1.84 0 l-4.14 -14.16 l1.86 0 z M34.00150000000001 5.84 l0 1.56 l-7.22 0 l0 4.44 l6.74 0 l0 1.56 l-6.74 0 l0 5.04 l7.58 0 l0 1.56 l-9.26 0 l0 -14.16 l8.9 0 z M47.223 5.84 l6.02 14.16 l-1.96 0 l-1.44 -3.48 l-7.08 0 l-1.46 3.48 l-1.9 0 l6.24 -14.16 l1.58 0 z M46.363 8 l-2.94 6.96 l5.78 0 l-2.8 -6.96 l-0.04 0 z M59.164500000000004 5.84 l4.36 11.64 l0.04 0 l4.5 -11.64 l1.78 0 l-5.54 14.16 l-1.62 0 l-5.42 -14.16 l1.9 0 z M84.406 5.84 l0 1.56 l-7.22 0 l0 4.44 l6.74 0 l0 1.56 l-6.74 0 l0 5.04 l7.58 0 l0 1.56 l-9.26 0 l0 -14.16 l8.9 0 z M95.58750000000002 5.48 q2.58 0 3.96 1.66 l-1.38 1.2 q-0.8 -1.26 -2.58 -1.3 q-1.34 0 -2.18 0.64 t-0.84 1.74 q0 0.96 0.64 1.52 t2.4 1.1 q2.28 0.66 3.23 1.61 t0.95 2.57 q0 1.88 -1.4 3 t-3.58 1.14 q-1.46 0 -2.6 -0.52 t-1.76 -1.44 l1.44 -1.18 q0.46 0.76 1.28 1.17 t1.74 0.41 q1.26 0 2.17 -0.71 t0.91 -1.75 q0 -0.94 -0.53 -1.48 t-1.75 -0.92 l-1.62 -0.54 q-1.82 -0.62 -2.57 -1.55 t-0.75 -2.29 q0 -1.8 1.34 -2.93 t3.48 -1.15 z M116.49050000000001 5.84 l3.98 6.4 l4.1 -6.4 l2.02 0 l-5.28 8.06 l0 6.1 l-1.68 0 l0 -6.1 l-5.28 -8.06 l2.14 0 z M138.83200000000002 5.48 q3.2 0 5.28 2.1 t2.12 5.34 q-0.02 3.3 -2.14 5.36 t-5.26 2.08 q-3.2 0 -5.28 -2.11 t-2.12 -5.33 q0 -3.2 2.08 -5.3 t5.32 -2.14 z M133.23200000000003 12.92 q0 2.54 1.6 4.19 t4 1.69 q2.4 0 3.98 -1.68 t1.62 -4.2 q0 -2.46 -1.56 -4.15 t-4.06 -1.73 q-2.44 0.02 -3.99 1.71 t-1.59 4.17 z M154.63350000000003 5.84 l0 8.52 q0 2.16 0.92 3.28 t2.74 1.16 q1.82 -0.02 2.73 -1.15 t0.93 -3.21 l0 -8.6 l1.68 0 l0 8.82 q0 2.7 -1.4 4.19 t-3.94 1.51 q-2.5 0 -3.91 -1.51 t-1.43 -4.21 l0 -8.8 l1.68 0 z M175.03500000000003 5.84 q2.78 0 4.09 0.92 t1.31 2.96 q0 1.5 -0.89 2.47 t-2.65 1.29 l4.02 6.52 l-2.06 0 l-3.84 -6.36 l-2.16 0 l0 6.36 l-1.68 0 l0 -14.16 l3.86 0 z M174.85500000000002 12.08 q1.98 0 2.88 -0.55 t0.9 -1.79 q0 -1.2 -0.81 -1.77 t-2.51 -0.57 l-2.46 0 l0 4.68 l2 0 z M202.13800000000003 5.84 q3.1 0 5.08 1.95 t2.02 5.13 q0 3.16 -1.99 5.1 t-5.07 1.98 l-5.32 0 l0 -14.16 l5.28 0 z M201.73800000000003 18.44 q2.66 0 4.17 -1.41 t1.53 -4.11 q0 -2.6 -1.48 -4.04 t-4.22 -1.48 l-3.2 0 l0 11.04 l3.2 0 z M219.87950000000004 5.84 q2.78 0 4.09 0.92 t1.31 2.96 q0 1.5 -0.89 2.47 t-2.65 1.29 l4.02 6.52 l-2.06 0 l-3.84 -6.36 l-2.16 0 l0 6.36 l-1.68 0 l0 -14.16 l3.86 0 z M219.69950000000003 12.08 q1.98 0 2.88 -0.55 t0.9 -1.79 q0 -1.2 -0.81 -1.77 t-2.51 -0.57 l-2.46 0 l0 4.68 l2 0 z M241.22100000000003 5.84 l0 1.56 l-7.22 0 l0 4.44 l6.74 0 l0 1.56 l-6.74 0 l0 5.04 l7.58 0 l0 1.56 l-9.26 0 l0 -14.16 l8.9 0 z M254.44250000000002 5.84 l6.02 14.16 l-1.96 0 l-1.44 -3.48 l-7.08 0 l-1.46 3.48 l-1.9 0 l6.24 -14.16 l1.58 0 z M253.58250000000004 8 l-2.94 6.96 l5.78 0 l-2.8 -6.96 l-0.04 0 z M268.92400000000004 5.84 l4.8 11.1 l0.04 0 l4.84 -11.1 l2.44 0 l0 14.16 l-1.68 0 l0 -11.88 l-0.04 0 l-5.08 11.88 l-1.02 0 l-5.08 -11.88 l-0.04 0 l0 11.88 l-1.68 0 l0 -14.16 l2.5 0 z M298.50700000000006 5.84 l3.22 11.76 l0.04 0 l3.48 -11.76 l1.88 0 l3.46 11.76 l0.04 0 l3.28 -11.76 l1.76 0 l-4.16 14.16 l-1.82 0 l-3.5 -12 l-0.04 0 l-3.52 12 l-1.84 0 l-4.14 -14.16 l1.86 0 z M323.30850000000004 5.84 l0 14.16 l-1.68 0 l0 -14.16 l1.68 0 z M340.41 5.84 l0 1.56 l-4.68 0 l0 12.6 l-1.68 0 l0 -12.6 l-4.68 0 l0 -1.56 l11.04 0 z M348.15150000000006 5.84 l0 6 l7.56 0 l0 -6 l1.68 0 l0 14.16 l-1.68 0 l0 -6.6 l-7.56 0 l0 6.6 l-1.68 0 l0 -14.16 l1.68 0 z M381.21450000000004 5.48 q3.2 0 5.28 2.1 t2.12 5.34 q-0.02 3.3 -2.14 5.36 t-5.26 2.08 q-3.2 0 -5.28 -2.11 t-2.12 -5.33 q0 -3.2 2.08 -5.3 t5.32 -2.14 z M375.6145000000001 12.92 q0 2.54 1.6 4.19 t4 1.69 q2.4 0 3.98 -1.68 t1.62 -4.2 q0 -2.46 -1.56 -4.15 t-4.06 -1.73 q-2.44 0.02 -3.99 1.71 t-1.59 4.17 z M397.0160000000001 5.84 l0 8.52 q0 2.16 0.92 3.28 t2.74 1.16 q1.82 -0.02 2.73 -1.15 t0.93 -3.21 l0 -8.6 l1.68 0 l0 8.82 q0 2.7 -1.4 4.19 t-3.94 1.51 q-2.5 0 -3.91 -1.51 t-1.43 -4.21 l0 -8.8 l1.68 0 z M417.4175000000001 5.84 q2.78 0 4.09 0.92 t1.31 2.96 q0 1.5 -0.89 2.47 t-2.65 1.29 l4.02 6.52 l-2.06 0 l-3.84 -6.36 l-2.16 0 l0 6.36 l-1.68 0 l0 -14.16 l3.86 0 z M417.23750000000007 12.08 q1.98 0 2.88 -0.55 t0.9 -1.79 q0 -1.2 -0.81 -1.77 t-2.51 -0.57 l-2.46 0 l0 4.68 l2 0 z M449.00050000000005 5.84 l0 1.56 l-4.68 0 l0 12.6 l-1.68 0 l0 -12.6 l-4.68 0 l0 -1.56 l11.04 0 z M456.7420000000001 5.84 l0 6 l7.56 0 l0 -6 l1.68 0 l0 14.16 l-1.68 0 l0 -6.6 l-7.56 0 l0 6.6 l-1.68 0 l0 -14.16 l1.68 0 z M477.4435000000001 5.84 q2.78 0 4.09 0.92 t1.31 2.96 q0 1.5 -0.89 2.47 t-2.65 1.29 l4.02 6.52 l-2.06 0 l-3.84 -6.36 l-2.16 0 l0 6.36 l-1.68 0 l0 -14.16 l3.86 0 z M477.2635000000001 12.08 q1.98 0 2.88 -0.55 t0.9 -1.79 q0 -1.2 -0.81 -1.77 t-2.51 -0.57 l-2.46 0 l0 4.68 l2 0 z M498.7850000000001 5.84 l0 1.56 l-7.22 0 l0 4.44 l6.74 0 l0 1.56 l-6.74 0 l0 5.04 l7.58 0 l0 1.56 l-9.26 0 l0 -14.16 l8.9 0 z M512.0065000000001 5.84 l6.02 14.16 l-1.96 0 l-1.44 -3.48 l-7.08 0 l-1.46 3.48 l-1.9 0 l6.24 -14.16 l1.58 0 z M511.14650000000006 8 l-2.94 6.96 l5.78 0 l-2.8 -6.96 l-0.04 0 z M529.008 5.84 q3.1 0 5.08 1.95 t2.02 5.13 q0 3.16 -1.99 5.1 t-5.07 1.98 l-5.32 0 l0 -14.16 l5.28 0 z M528.6080000000001 18.44 q2.66 0 4.17 -1.41 t1.53 -4.11 q0 -2.6 -1.48 -4.04 t-4.22 -1.48 l-3.2 0 l0 11.04 l3.2 0 z"></path></g></svg>